<svg xmlns="http://www.w3.org/2000/svg" viewBox="0 0 512 512">
  <defs>
    <linearGradient id="g3" x1="0%" y1="0%" x2="100%" y2="100%">
      <stop offset="0%" style="stop-color:#EC407A"/>
      <stop offset="50%" style="stop-color:#E8577D"/>
      <stop offset="100%" style="stop-color:#D81B60"/>
    </linearGradient>
  </defs>
  <rect width="512" height="512" rx="96" fill="url(#g3)"/>
  <!-- Flower/lotus petals -->
  <ellipse cx="256" cy="200" rx="40" ry="70" fill="white" opacity="0.9"/>
  <ellipse cx="256" cy="200" rx="40" ry="70" fill="white" opacity="0.8" transform="rotate(45 256 256)"/>
  <ellipse cx="256" cy="200" rx="40" ry="70" fill="white" opacity="0.7" transform="rotate(90 256 256)"/>
  <ellipse cx="256" cy="200" rx="40" ry="70" fill="white" opacity="0.8" transform="rotate(135 256 256)"/>
  <ellipse cx="256" cy="200" rx="40" ry="70" fill="white" opacity="0.9" transform="rotate(180 256 256)"/>
  <ellipse cx="256" cy="200" rx="40" ry="70" fill="white" opacity="0.8" transform="rotate(225 256 256)"/>
  <ellipse cx="256" cy="200" rx="40" ry="70" fill="white" opacity="0.7" transform="rotate(270 256 256)"/>
  <ellipse cx="256" cy="200" rx="40" ry="70" fill="white" opacity="0.8" transform="rotate(315 256 256)"/>
  <!-- Center circle -->
  <circle cx="256" cy="256" r="35" fill="white" opacity="0.95"/>
  <circle cx="256" cy="256" r="20" fill="url(#g3)" opacity="0.4"/>
  <!-- Text -->
  <text x="256" y="430" text-anchor="middle" font-family="Arial,sans-serif" font-weight="700" font-size="42" fill="white" letter-spacing="4">MUJCYKLUS</text>
</svg>